<svg width="85" height="86" viewBox="0 0 85 86" version="1.1" xmlns="http://www.w3.org/2000/svg"><title>img-icn-skill-5</title><g stroke="none" stroke-width="1" fill="none" fill-rule="evenodd"><g fill-rule="nonzero"><g><g><g transform="translate(.188 .438)"><circle fill="#E53B3B" cx="42.329" cy="42.329" r="42.329"/><path d="M63.66 52.49h-.595V29l-10.397 9.73L42.27 29l-10.333 9.68L21.605 29v23.489h-.546a1.06 1.06 0 0 0 0 2.119h42.59a1.06 1.06 0 1 0 0-2.119h.012z" fill="#FFBC00"/><path fill="#FFE600" d="M36.523 34.408l-4.599 4.313-4.516-4.23v18.097h9.115z"/><path fill="#1CB0F6" d="M40.487 47.62L38 43.308 40.487 39h4.973l2.493 4.307-2.493 4.314z"/><path fill="#14D4F4" d="M40.468 39L38 43.275l.013.02 4.954-.039z"/><path fill="#000" opacity=".2" d="M42.787 43.51l5.03-.007-2.486 4.339z"/><path fill="#FFE600" d="M25.408 52.408h9.616v2.144h-9.616z"/></g></g></g></g></g></svg>