<svg width="85" height="86" viewBox="0 0 85 86" version="1.1" xmlns="http://www.w3.org/2000/svg"><title>img-icn-skill-1</title><g stroke="none" stroke-width="1" fill="none" fill-rule="evenodd"><g fill-rule="nonzero"><g><g><g transform="translate(.188 .438)"><circle fill="#1CB0F6" cx="42.329" cy="42.329" r="42.329"/><path d="M51.47 24.39l-3.92 4.326 2.9 2.087-4.397 10.675 1.84-9.052-3.946-3.019 4.01-7.866A9.953 9.953 0 0 0 42.817 20C32.98 20 25 37.038 25 46.876c0 9.839 7.974 17.127 17.818 17.127 9.845 0 17.825-7.288 17.825-17.127 0-6.71-3.692-16.771-9.172-22.486z" fill="#FFF"/><path d="M42.812 55.773A21.802 21.802 0 0 1 25 47c0 9.838 7.974 17.127 17.818 17.127 9.845 0 17.793-7.289 17.793-17.127a21.808 21.808 0 0 1-17.8 8.773z" fill="#BCE9FF"/></g></g></g></g></g></svg>