<?xml version="1.0" encoding="UTF-8" standalone="no"?>
<!-- Created with Inkscape (http://www.inkscape.org/) -->

<svg
   xmlns:dc="http://purl.org/dc/elements/1.1/"
   xmlns:cc="http://creativecommons.org/ns#"
   xmlns:rdf="http://www.w3.org/1999/02/22-rdf-syntax-ns#"
   xmlns:svg="http://www.w3.org/2000/svg"
   xmlns="http://www.w3.org/2000/svg"
   xmlns:xlink="http://www.w3.org/1999/xlink"
   xmlns:sodipodi="http://sodipodi.sourceforge.net/DTD/sodipodi-0.dtd"
   xmlns:inkscape="http://www.inkscape.org/namespaces/inkscape"
   width="88.27964mm"
   height="23.151039mm"
   viewBox="0 0 88.27964 23.151039"
   version="1.1"
   id="svg8"
   inkscape:version="0.92.2 (5c3e80d, 2017-08-06)"
   sodipodi:docname="competencia-logotipo-white-without-bg.svg">
  <defs
     id="defs2">
    <clipPath
       clipPathUnits="userSpaceOnUse"
       id="clipPath5025">
      <rect
         style="fill:#000000;fill-opacity:1;fill-rule:evenodd;stroke:none"
         id="rect5027"
         width="744.09448"
         height="1052.3622"
         x="0"
         y="-1.7382812e-005" />
    </clipPath>
    <clipPath
       clipPathUnits="userSpaceOnUse"
       id="clipPath5025-0">
      <rect
         style="fill:#000000;fill-opacity:1;fill-rule:evenodd;stroke:none"
         id="rect5027-8"
         width="744.09448"
         height="1052.3622"
         x="0"
         y="-1.7382812e-005" />
    </clipPath>
    <linearGradient
       inkscape:collect="always"
       id="linearGradient5087-6-6">
      <stop
         style="stop-color:#000000;stop-opacity:0.32156864"
         offset="0"
         id="stop5089" />
      <stop
         style="stop-color:#000000;stop-opacity:0;"
         offset="1"
         id="stop5091" />
    </linearGradient>
    <linearGradient
       inkscape:collect="always"
       id="linearGradient5140">
      <stop
         style="stop-color:#000000;stop-opacity:0.50588238"
         offset="0"
         id="stop5142" />
      <stop
         style="stop-color:#000000;stop-opacity:0"
         offset="1"
         id="stop5144" />
    </linearGradient>
    <linearGradient
       inkscape:collect="always"
       id="linearGradient5108">
      <stop
         style="stop-color:#000000;stop-opacity:0.49803922"
         offset="0"
         id="stop5110" />
      <stop
         style="stop-color:#000000;stop-opacity:0;"
         offset="1"
         id="stop5112" />
    </linearGradient>
    <linearGradient
       id="linearGradient5132"
       inkscape:collect="always">
      <stop
         id="stop5134"
         offset="0"
         style="stop-color:#000000;stop-opacity:0.1882353" />
      <stop
         id="stop5136"
         offset="1"
         style="stop-color:#000000;stop-opacity:0;" />
    </linearGradient>
    <radialGradient
       inkscape:collect="always"
       xlink:href="#linearGradient5087-6-6"
       id="radialGradient5211"
       gradientUnits="userSpaceOnUse"
       gradientTransform="matrix(-0.63229363,-0.42225387,1.2573599,-1.8828026,402.39963,1474.7785)"
       cx="544.54425"
       cy="546.1889"
       fx="544.54425"
       fy="546.1889"
       r="190.10352" />
    <linearGradient
       inkscape:collect="always"
       xlink:href="#linearGradient5140"
       id="linearGradient5213"
       gradientUnits="userSpaceOnUse"
       gradientTransform="matrix(1,0,0,1.2767336,-6.8588539e-7,-100.28135)"
       x1="743.1817"
       y1="363.2771"
       x2="745.0329"
       y2="484.01898" />
    <linearGradient
       inkscape:collect="always"
       xlink:href="#linearGradient5108"
       id="linearGradient5215"
       gradientUnits="userSpaceOnUse"
       x1="748.1864"
       y1="85.58963"
       x2="748.06244"
       y2="237.34679" />
    <linearGradient
       inkscape:collect="always"
       xlink:href="#linearGradient5132"
       id="linearGradient5217"
       gradientUnits="userSpaceOnUse"
       x1="744.44464"
       y1="314.24066"
       x2="746.44806"
       y2="357.98242" />
    <radialGradient
       inkscape:collect="always"
       xlink:href="#linearGradient5140"
       id="radialGradient5219"
       gradientUnits="userSpaceOnUse"
       gradientTransform="matrix(0.00532672,1.0984807,-1.0960584,0.00531496,1446.0873,-581.59492)"
       cx="965.49628"
       cy="442.94186"
       fx="965.49628"
       fy="442.94186"
       r="82.560966" />
    <radialGradient
       inkscape:collect="always"
       xlink:href="#linearGradient5140"
       id="radialGradient5221"
       gradientUnits="userSpaceOnUse"
       gradientTransform="matrix(1.0238223,0,0,1.0238223,-21.994516,-8.313326)"
       cx="923.27222"
       cy="432.92633"
       fx="923.27222"
       fy="432.92633"
       r="22.261864" />
    <radialGradient
       inkscape:collect="always"
       xlink:href="#linearGradient5140"
       id="radialGradient5223"
       gradientUnits="userSpaceOnUse"
       gradientTransform="matrix(1.0238223,0,0,1.0238223,-23.808422,-8.3133264)"
       cx="999.41492"
       cy="432.92633"
       fx="999.41492"
       fy="432.92633"
       r="22.261864" />
    <linearGradient
       inkscape:collect="always"
       xlink:href="#linearGradient5087-6-6"
       id="linearGradient905"
       x1="-952.1311"
       y1="35.628254"
       x2="-1006.904"
       y2="45.226101"
       gradientUnits="userSpaceOnUse" />
    <linearGradient
       inkscape:collect="always"
       xlink:href="#linearGradient5087-6-6"
       id="linearGradient907"
       x1="862.27795"
       y1="13.849788"
       x2="919.01337"
       y2="24.071964"
       gradientUnits="userSpaceOnUse" />
  </defs>
  <sodipodi:namedview
     id="base"
     pagecolor="#ffffff"
     bordercolor="#666666"
     borderopacity="1.0"
     inkscape:pageopacity="0.0"
     inkscape:pageshadow="2"
     inkscape:zoom="1.4"
     inkscape:cx="374.13281"
     inkscape:cy="-95.857796"
     inkscape:document-units="mm"
     inkscape:current-layer="layer1"
     showgrid="false"
     showguides="true"
     inkscape:guide-bbox="true"
     inkscape:window-width="1920"
     inkscape:window-height="1001"
     inkscape:window-x="-9"
     inkscape:window-y="-9"
     inkscape:window-maximized="1"
     fit-margin-top="0"
     fit-margin-left="0"
     fit-margin-right="0"
     fit-margin-bottom="0">
    <sodipodi:guide
       position="-3.552784e-008,17.246058"
       orientation="1,0"
       id="guide5307"
       inkscape:locked="false" />
    <sodipodi:guide
       position="88.279637,5.3811281"
       orientation="1,0"
       id="guide5309"
       inkscape:locked="false" />
    <sodipodi:guide
       position="24.508754,-1.8174221e-006"
       orientation="0,1"
       id="guide5315"
       inkscape:locked="false" />
    <sodipodi:guide
       position="39.533307,23.151038"
       orientation="0,1"
       id="guide5317"
       inkscape:locked="false" />
  </sodipodi:namedview>
  <metadata
     id="metadata5">
    <rdf:RDF>
      <cc:Work
         rdf:about="">
        <dc:format>image/svg+xml</dc:format>
        <dc:type
           rdf:resource="http://purl.org/dc/dcmitype/StillImage" />
        <dc:title></dc:title>
      </cc:Work>
    </rdf:RDF>
  </metadata>
  <g
     inkscape:label="Layer 1"
     inkscape:groupmode="layer"
     id="layer1"
     transform="translate(-26.659771,-72.48214)">
    <rect
       style="opacity:1;fill:none;fill-opacity:1;stroke:none;stroke-width:0.26458332;paint-order:normal"
       id="rect5319"
       width="88.27964"
       height="23.151039"
       x="26.659771"
       y="72.48214" />
    <g
       id="g5209"
       transform="translate(-0.40090428,38.019088)">
      <g
         style="opacity:1;stroke-width:8.24429607"
         id="g5183"
         transform="matrix(0.02542106,0,0,0.02542106,19.248138,40.169291)">
        <path
           inkscape:connector-curvature="0"
           id="path5161"
           d="m 578.40582,-100.83559 v 56.447257 H 527.58909 470.5284 V 74.151458 c 0,84.172322 68.63325,152.408722 153.29862,152.408722 1.82078,0 3.59816,-0.19954 5.40114,-0.27279 2.93703,2.78572 5.98084,5.46307 9.11393,8.03365 4.06602,3.33605 8.29001,6.4782 12.66988,9.41995 4.37987,2.94175 8.88854,5.70014 13.55468,8.22018 4.66612,2.52002 9.48388,4.80756 14.40867,6.87845 4.92477,2.07087 9.96119,3.90901 15.11706,5.50331 5.15585,1.59429 10.4297,2.93212 15.78905,4.02239 1.97892,0.4026 3.97767,0.7613 5.98355,1.09677 -0.3842,-0.0641 -0.77298,-0.11407 -1.15639,-0.18093 -0.60664,2.51543 -1.31732,4.98014 -2.12799,7.41013 -0.81066,2.42998 -1.7277,4.82738 -2.73277,7.16239 -1.00506,2.33499 -2.11132,4.61183 -3.30117,6.84225 -1.18984,2.23042 -2.46817,4.41143 -3.83316,6.5277 -1.36499,2.11628 -2.79824,4.18162 -4.32876,6.17419 -1.53053,1.99257 -3.14072,3.92519 -4.82716,5.78446 -1.68645,1.85928 -3.45363,3.64772 -5.28635,5.36414 -1.83272,1.7164 -3.74258,3.34083 -5.71195,4.90482 -1.96937,1.56398 -4.00753,3.04076 -6.10395,4.44274 -2.09641,1.40198 -4.24571,2.72239 -6.45954,3.95282 -2.21382,1.2304 -4.49073,2.37184 -6.81234,3.42112 -2.32159,1.04928 -4.67816,2.03368 -7.09793,2.89224 -2.41977,0.85855 -4.90883,1.60205 -7.41713,2.26033 -2.50831,0.65827 -5.04272,1.20787 -7.62993,1.65629 -2.58722,0.44842 -5.21982,0.79539 -7.87634,1.02439 -2.41492,0.20817 -4.85544,0.31649 -7.31912,0.33682 h -2.01319 v 56.46396 h -28.38895 c 0,3.50718 -0.34968,6.92287 -1.03037,10.22999 -0.68071,3.30712 -1.68908,6.48676 -2.98198,9.52573 -1.29291,3.03895 -2.88135,5.94056 -4.71796,8.64328 -1.83661,2.70271 -3.93493,5.21477 -6.24674,7.51312 -2.31182,2.29837 -4.83859,4.38445 -7.55713,6.21038 -2.71855,1.82591 -5.60357,3.3717 -8.66033,4.65707 -3.05676,1.28538 -6.28863,2.2851 -9.61511,2.96183 -3.32649,0.67674 -6.76498,1.06058 -10.29271,1.06058 v 62.08975 h 397.44519 v -62.08975 c -3.52771,0 -6.96342,-0.38384 -10.2899,-1.06058 -3.32649,-0.67673 -6.56115,-1.67645 -9.61792,-2.96183 -3.05675,-1.28537 -5.93898,-2.83116 -8.65752,-4.65707 -2.71854,-1.82593 -5.2481,-3.91201 -7.55993,-6.21038 -2.31182,-2.29835 -4.40732,-4.81041 -6.24395,-7.51312 -1.83661,-2.70272 -3.42785,-5.60433 -4.72074,-8.64328 -1.29291,-3.03897 -2.29849,-6.21861 -2.97918,-9.52573 -0.6807,-3.30712 -1.03039,-6.72281 -1.03039,-10.22999 h -28.38894 v -56.46396 h -4.84957 c -2.45378,-0.0206 -4.87905,-0.13008 -7.28553,-0.33682 -2.64729,-0.22743 -5.26419,-0.54282 -7.84272,-0.98821 -2.57854,-0.44538 -5.12968,-1.00521 -7.62994,-1.65907 -2.50025,-0.65385 -4.96827,-1.40469 -7.38072,-2.25754 -2.41246,-0.85287 -4.78282,-1.81366 -7.09795,-2.85606 -2.31513,-1.04238 -4.57043,-2.16527 -6.77873,-3.38771 -2.2083,-1.22244 -4.36481,-2.55979 -6.45674,-3.95282 -2.09194,-1.39303 -4.10431,-2.85521 -6.07034,-4.40933 -1.96605,-1.55413 -3.88131,-3.19628 -5.71196,-4.90204 -1.83063,-1.70577 -3.60062,-3.48002 -5.28635,-5.32795 -1.68571,-1.84793 -3.29586,-3.77045 -4.82715,-5.75106 -1.5313,-1.98062 -2.96144,-4.00078 -4.32877,-6.1046 -1.36731,-2.10381 -2.67572,-4.27395 -3.86957,-6.49151 -1.19383,-2.21757 -2.28751,-4.48704 -3.29836,-6.80886 -1.01084,-2.32182 -1.91446,-4.70959 -2.73278,-7.1262 -0.81651,-2.41131 -1.54615,-4.85819 -2.16158,-7.35444 2.53783,-0.3997 5.05865,-0.85073 7.55433,-1.35845 5.35935,-1.09027 10.636,-2.4281 15.79187,-4.02239 5.15585,-1.5943 10.19227,-3.43244 15.11706,-5.50331 4.92478,-2.07089 9.74254,-4.35843 14.40867,-6.87845 4.66612,-2.52004 9.17481,-5.27843 13.55467,-8.22018 4.37987,-2.94175 8.60105,-6.0839 12.66709,-9.41995 3.13304,-2.57054 6.17691,-5.24797 9.11392,-8.03365 1.80106,0.0735 3.57384,0.27279 5.39275,0.27279 84.66537,0 153.30145,-68.23641 153.30145,-152.408722 V -44.388333 h -57.06073 -50.81114 v -56.447257 z m -67.08738,93.1221048 h 47.04797 20.03941 V 108.02038 c 0,5.65045 0.28906,11.21849 0.85119,16.7215 0.56214,5.50302 1.38691,10.93684 2.48358,16.26499 1.09668,5.32814 2.47873,10.53787 4.08237,15.6637 1.60364,5.12585 3.45253,10.16913 5.53555,15.06522 2.083,4.89611 4.38395,9.64684 6.91873,14.2858 0.54335,0.99438 1.10093,1.98173 1.66319,2.96461 -51.35434,-14.42839 -88.62199,-57.49792 -88.62199,-108.387759 z m 396.39799,0 h 20.03382 47.04798 V 80.598441 c 0,50.887879 -37.26514,93.954929 -88.61639,108.384979 0.56183,-0.98219 1.12023,-1.96817 1.66317,-2.96183 2.5348,-4.63896 4.83853,-9.38969 6.92155,-14.2858 2.083,-4.89609 3.93191,-9.93937 5.53555,-15.06522 1.60362,-5.12583 2.98288,-10.33556 4.07956,-15.6637 1.09666,-5.32815 1.92143,-10.76197 2.48357,-16.26499 0.56214,-5.50301 0.85119,-11.07105 0.85119,-16.7215 z M 602.8832,193.92165 c 0.18577,0.30018 0.37511,0.59747 0.5628,0.89634 -0.18746,-0.2989 -0.37726,-0.59612 -0.5628,-0.89634 z m 280.17666,0.28671 c -0.0546,0.0879 -0.10765,0.17666 -0.1624,0.26445 0.0548,-0.0878 0.10775,-0.17655 0.1624,-0.26445 z m -163.63332,75.81047 c 0.56404,0.0818 1.12818,0.16343 1.69398,0.2394 -0.56586,-0.0756 -1.12986,-0.15796 -1.69398,-0.2394 z"
           style="fill:url(#radialGradient5211);fill-opacity:1;stroke:none;stroke-width:8.24429607" />
        <path
           style="fill:#ffcc00;stroke:none;stroke-width:8.24429607;fill-opacity:1"
           d="M -1133.8047,-109.20508 V 45.71875 c 0,110.00741 89.1781,199.18555 199.18556,199.18555 2.44205,0 4.81946,-0.282 7.24023,-0.36914 -1.17387,-1.11826 -2.45139,-2.12718 -3.59765,-3.27344 -4.83946,-4.83945 -9.42518,-9.93177 -13.78516,-15.21484 -4.35997,-5.28308 -8.51276,-10.77009 -12.35742,-16.46094 -3.02062,-4.47111 -5.85941,-9.07878 -8.53711,-13.78711 C -1032.382,176.94191 -1080.8047,120.65405 -1080.8047,54.144531 V -61.275391 h 61.1289 26.03908 v -47.929689 h -66.02738 z"
           transform="matrix(0.67775832,0,0,0.67775832,1273.4457,46.389073)"
           id="path5163"
           inkscape:connector-curvature="0" />
        <rect
           y="312.36218"
           x="640"
           height="50.176758"
           width="210"
           id="rect5165"
           style="fill:#aa8800;stroke:none;stroke-width:8.24429607" />
        <path
           id="path5167"
           d="m 641.125,312.375 h 205.25 c -2.38345,0 -4.73122,-0.11105 -7.0625,-0.3125 -2.33128,-0.20145 -4.63553,-0.48049 -6.90625,-0.875 -2.27072,-0.39451 -4.51696,-0.88958 -6.71875,-1.46875 -2.20179,-0.57917 -4.37553,-1.24455 -6.5,-2 -2.12447,-0.75545 -4.21124,-1.60792 -6.25,-2.53125 -2.03876,-0.92333 -4.02407,-1.91718 -5.96875,-3 -1.94468,-1.08282 -3.84529,-2.26608 -5.6875,-3.5 -1.84221,-1.23392 -3.6124,-2.52963 -5.34375,-3.90625 -1.73135,-1.37662 -3.41914,-2.83281 -5.03125,-4.34375 -1.61211,-1.51094 -3.17176,-3.08189 -4.65625,-4.71875 -1.48449,-1.63686 -2.90151,-3.33936 -4.25,-5.09375 -1.34849,-1.75439 -2.6084,-3.54272 -3.8125,-5.40625 -1.2041,-1.86353 -2.35492,-3.78572 -3.40625,-5.75 -1.05133,-1.96428 -2.01608,-3.97462 -2.90625,-6.03125 -0.89017,-2.05663 -1.68562,-4.17191 -2.40625,-6.3125 -0.72063,-2.14059 -1.36354,-4.31508 -1.90625,-6.53125 -2.56711,0.40682 -5.14261,0.76645 -7.75,1.03125 -4.87448,0.49503 -9.80742,0.75 -14.8125,0.75 -5.00508,0 -9.93802,-0.25497 -14.8125,-0.75 -3.42211,-0.34753 -6.80603,-0.81861 -10.15625,-1.40625 -0.53422,2.22813 -1.16111,4.41005 -1.875,6.5625 -0.71389,2.15245 -1.52116,4.27545 -2.40625,6.34375 -0.88509,2.0683 -1.85844,4.08683 -2.90625,6.0625 -1.04781,1.97567 -2.17295,3.90669 -3.375,5.78125 -1.20205,1.87456 -2.46468,3.70377 -3.8125,5.46875 -1.34782,1.76498 -2.76488,3.47809 -4.25,5.125 -1.48512,1.64691 -3.04231,3.22963 -4.65625,4.75 -1.61394,1.52037 -3.29697,2.9584 -5.03125,4.34375 -1.73428,1.38535 -3.52885,2.69565 -5.375,3.9375 -1.84615,1.24185 -3.73795,2.41012 -5.6875,3.5 -1.94955,1.08988 -3.95554,2.10182 -6,3.03125 -2.04446,0.92943 -4.11909,1.802 -6.25,2.5625 -2.13091,0.7605 -4.32237,1.41691 -6.53125,2 -2.20888,0.58309 -4.44038,1.07155 -6.71875,1.46875 -2.27837,0.3972 -4.59811,0.70341 -6.9375,0.90625 -2.33939,0.20284 -4.70182,0.3125 -7.09375,0.3125 z"
           style="fill:#d4aa00;stroke:none;stroke-width:8.24429607"
           inkscape:connector-curvature="0" />
        <path
           id="path5169"
           d="m 640,312.3125 v 0.0625 h 1.125 c -0.38058,0 -0.74567,-0.0573 -1.125,-0.0625 z"
           style="fill:#000000;stroke:none;stroke-width:8.24429607"
           inkscape:connector-curvature="0" />
        <path
           inkscape:connector-curvature="0"
           style="fill:url(#linearGradient5213);fill-opacity:1;stroke:none;stroke-width:8.24429607"
           d="m 569.99999,419.82801 v 70.22035 h 350 v -70.22035 c -3.1066,0 -6.13311,-0.43161 -9.06249,-1.19693 -2.9294,-0.76533 -5.77689,-1.89779 -8.46875,-3.35143 -2.69187,-1.45364 -5.23098,-3.20158 -7.625,-5.26653 -2.39403,-2.06495 -4.6204,-4.42279 -6.65625,-7.02203 -2.03586,-2.59924 -3.88263,-5.44173 -5.50001,-8.49826 -1.61737,-3.05653 -3.01768,-6.3382 -4.15624,-9.77499 -1.13857,-3.43679 -2.02557,-7.03239 -2.62501,-10.77244 C 875.3068,370.20535 875,366.3413 875,362.375 H 615 c 0,3.9663 -0.30682,7.83035 -0.90626,11.5704 -0.59944,3.74005 -1.48644,7.33565 -2.62499,10.77244 -1.13856,3.43679 -2.53889,6.71846 -4.15626,9.77499 -1.61736,3.05653 -3.46415,5.89902 -5.49999,8.49826 -2.03585,2.59924 -4.26224,4.95708 -6.65625,7.02203 -2.39402,2.06495 -4.93315,3.81289 -7.625,5.26653 -2.69186,1.45364 -5.53937,2.5861 -8.46875,3.35143 -2.9294,0.76532 -5.95591,1.19693 -9.06251,1.19693 z"
           id="path5171" />
        <path
           id="path5173"
           d="m 570,407.375 v 55 h 350 v -55 c -3.1066,0 -6.13311,-0.33806 -9.0625,-0.9375 -2.92939,-0.59944 -5.77689,-1.48644 -8.46875,-2.625 -2.69186,-1.13856 -5.23098,-2.50763 -7.625,-4.125 -2.39402,-1.61737 -4.6204,-3.46415 -6.65625,-5.5 -2.03585,-2.03585 -3.88263,-4.26223 -5.5,-6.65625 -1.61737,-2.39402 -3.01769,-4.96439 -4.15625,-7.65625 -1.13856,-2.69186 -2.02556,-5.50811 -2.625,-8.4375 C 875.30681,368.50811 875,365.4816 875,362.375 H 615 c 0,3.1066 -0.30681,6.13311 -0.90625,9.0625 -0.59944,2.92939 -1.48644,5.74564 -2.625,8.4375 -1.13856,2.69186 -2.53888,5.26223 -4.15625,7.65625 -1.61737,2.39402 -3.46415,4.6204 -5.5,6.65625 -2.03585,2.03585 -4.26223,3.88263 -6.65625,5.5 -2.39402,1.61737 -4.93314,2.98644 -7.625,4.125 -2.69186,1.13856 -5.53936,2.02556 -8.46875,2.625 -2.92939,0.59944 -5.9559,0.9375 -9.0625,0.9375 z"
           style="fill:#d3a800;stroke:none;stroke-width:8.24429607;fill-opacity:1"
           inkscape:connector-curvature="0" />
        <path
           id="path5175"
           d="M 984.99294,-27.625579 V 77.375336 c 0,74.558434 -60.4412,134.999664 -134.99967,134.999664 -1.65512,0 -3.26643,-0.19113 -4.90713,-0.25019 0.7956,-0.75791 1.66145,-1.44171 2.43834,-2.2186 3.27998,-3.27998 6.38799,-6.73134 9.34301,-10.31198 2.955,-3.58065 5.76959,-7.29952 8.37534,-11.15654 2.04725,-3.03033 3.97126,-6.15322 5.7861,-9.34433 45.22393,-12.78044 78.04282,-50.93 78.04282,-96.007381 V 4.8591669 H 907.64113 889.99292 V -27.625579 h 44.75061 z"
           style="fill:#ffcc00;stroke:none;stroke-width:8.24429607;fill-opacity:1"
           inkscape:connector-curvature="0" />
        <path
           inkscape:connector-curvature="0"
           style="fill:url(#linearGradient5215);fill-opacity:1;stroke:none;stroke-width:8.24429607"
           d="M 600,-64.234663 V 120.76534 c 0,5.00508 0.25497,9.93802 0.75,14.8125 0.49503,4.87448 1.22174,9.68667 2.1875,14.40625 0.96576,4.71958 2.18155,9.33462 3.59375,13.875 1.4122,4.54038 3.04065,9.00686 4.875,13.34375 1.83435,4.33689 3.86155,8.54714 6.09375,12.65625 2.2322,4.10911 4.64425,8.11173 7.25,11.96875 2.60575,3.85702 5.41999,7.5756 8.375,11.15625 2.95501,3.58065 6.06377,7.03252 9.34375,10.3125 3.27998,3.27998 6.73185,6.38874 10.3125,9.34375 3.58065,2.95501 7.29923,5.738 11.15625,8.34375 3.85702,2.60575 7.82839,5.04905 11.9375,7.28125 4.10911,2.2322 8.35061,4.2594 12.6875,6.09375 4.33689,1.83435 8.77212,3.4628 13.3125,4.875 4.54038,1.4122 9.18667,2.59674 13.90625,3.5625 4.71958,0.96576 9.53177,1.72372 14.40625,2.21875 4.87448,0.49503 9.80742,0.75 14.8125,0.75 5.00508,0 9.93802,-0.25497 14.8125,-0.75 4.87448,-0.49503 9.68667,-1.25299 14.40625,-2.21875 4.71958,-0.96576 9.36587,-2.1503 13.90625,-3.5625 4.54038,-1.4122 8.97561,-3.04065 13.3125,-4.875 4.33689,-1.83435 8.57839,-3.86155 12.6875,-6.09375 4.10911,-2.2322 8.08048,-4.6755 11.9375,-7.28125 3.85702,-2.60575 7.5756,-5.38874 11.15625,-8.34375 3.58065,-2.95501 7.03252,-6.06377 10.3125,-9.34375 3.27998,-3.27998 6.38874,-6.73185 9.34375,-10.3125 2.95501,-3.58065 5.76925,-7.29923 8.375,-11.15625 2.60575,-3.85702 5.0178,-7.85964 7.25,-11.96875 2.2322,-4.10911 4.2594,-8.31936 6.09375,-12.65625 1.83435,-4.33689 3.4628,-8.80337 4.875,-13.34375 1.4122,-4.54038 2.62799,-9.15542 3.59375,-13.875 0.96576,-4.71958 1.69247,-9.53177 2.1875,-14.40625 0.49503,-4.87448 0.75,-9.80742 0.75,-14.8125 V -64.234663 Z"
           id="path5177" />
        <path
           id="path5179"
           d="m 600,-77.625 v 185 c 0,5.00508 0.25497,9.93802 0.75,14.8125 0.49503,4.87448 1.22174,9.68667 2.1875,14.40625 0.96576,4.71958 2.18155,9.33462 3.59375,13.875 1.4122,4.54038 3.04065,9.00686 4.875,13.34375 1.83435,4.33689 3.86155,8.54714 6.09375,12.65625 2.2322,4.10911 4.64425,8.11173 7.25,11.96875 2.60575,3.85702 5.41999,7.5756 8.375,11.15625 2.95501,3.58065 6.06377,7.03252 9.34375,10.3125 3.27998,3.27998 6.73185,6.38874 10.3125,9.34375 3.58065,2.95501 7.29923,5.738 11.15625,8.34375 3.85702,2.60575 7.82839,5.04905 11.9375,7.28125 4.10911,2.2322 8.35061,4.2594 12.6875,6.09375 4.33689,1.83435 8.77212,3.4628 13.3125,4.875 4.54038,1.4122 9.18667,2.59674 13.90625,3.5625 4.71958,0.96576 9.53177,1.72372 14.40625,2.21875 4.87448,0.49503 9.80742,0.75 14.8125,0.75 5.00508,0 9.93802,-0.25497 14.8125,-0.75 4.87448,-0.49503 9.68667,-1.25299 14.40625,-2.21875 4.71958,-0.96576 9.36587,-2.1503 13.90625,-3.5625 4.54038,-1.4122 8.97561,-3.04065 13.3125,-4.875 4.33689,-1.83435 8.57839,-3.86155 12.6875,-6.09375 4.10911,-2.2322 8.08048,-4.6755 11.9375,-7.28125 3.85702,-2.60575 7.5756,-5.38874 11.15625,-8.34375 3.58065,-2.95501 7.03252,-6.06377 10.3125,-9.34375 3.27998,-3.27998 6.38874,-6.73185 9.34375,-10.3125 2.95501,-3.58065 5.76925,-7.29923 8.375,-11.15625 2.60575,-3.85702 5.0178,-7.85964 7.25,-11.96875 2.2322,-4.10911 4.2594,-8.31936 6.09375,-12.65625 1.83435,-4.33689 3.4628,-8.80337 4.875,-13.34375 1.4122,-4.54038 2.62799,-9.15542 3.59375,-13.875 0.96576,-4.71958 1.69247,-9.53177 2.1875,-14.40625 0.49503,-4.87448 0.75,-9.80742 0.75,-14.8125 v -185 z"
           style="fill:#ffcc00;stroke:none;stroke-width:8.24429607;fill-opacity:1"
           inkscape:connector-curvature="0" />
        <rect
           style="fill:url(#linearGradient5217);fill-opacity:1;stroke:none;stroke-width:8.24429607"
           id="rect5181"
           width="210"
           height="50.176758"
           x="640"
           y="312.36218" />
        <path
           inkscape:connector-curvature="0"
           id="path895"
           transform="matrix(0.67775832,0,0,0.67775832,1273.4457,46.389073)"
           d="M -1133.8047,-109.20508 V 45.71875 c 0,110.00741 89.1781,199.18555 199.18556,199.18555 2.44205,0 4.81946,-0.282 7.24023,-0.36914 -1.17387,-1.11826 -2.45139,-2.12718 -3.59765,-3.27344 -4.83946,-4.83945 -9.42518,-9.93177 -13.78516,-15.21484 -4.35997,-5.28308 -8.51276,-10.77009 -12.35742,-16.46094 -3.02062,-4.47111 -5.85941,-9.07878 -8.53711,-13.78711 C -1032.382,176.94191 -1080.8047,120.65405 -1080.8047,54.144531 V -61.275391 h 61.1289 26.03908 v -47.929689 h -66.02738 z"
           style="fill:url(#linearGradient905);stroke:none;stroke-width:8.24429607;fill-opacity:1" />
        <path
           inkscape:connector-curvature="0"
           style="fill:url(#linearGradient907);stroke:none;stroke-width:8.24429607;fill-opacity:1"
           d="M 984.99294,-27.625579 V 77.375336 c 0,74.558434 -60.4412,134.999664 -134.99967,134.999664 -1.65512,0 -3.26643,-0.19113 -4.90713,-0.25019 0.7956,-0.75791 1.66145,-1.44171 2.43834,-2.2186 3.27998,-3.27998 6.38799,-6.73134 9.34301,-10.31198 2.955,-3.58065 5.76959,-7.29952 8.37534,-11.15654 2.04725,-3.03033 3.97126,-6.15322 5.7861,-9.34433 45.22393,-12.78044 78.04282,-50.93 78.04282,-96.007381 V 4.8591669 H 907.64113 889.99292 V -27.625579 h 44.75061 z"
           id="path897" />
      </g>
      <g
         style="font-style:normal;font-weight:normal;font-size:180px;line-height:125%;font-family:sans-serif;letter-spacing:0px;word-spacing:0px;display:inline;opacity:1;fill:#000000;fill-opacity:1;stroke:#000000;stroke-width:82.44296265;stroke-linecap:butt;stroke-linejoin:miter;stroke-miterlimit:4;stroke-dasharray:none;stroke-opacity:1"
         id="g5207"
         transform="matrix(0.0320929,0,0,0.0320929,7.2710117,27.508686)">
        <g
           id="g5191"
           transform="matrix(0.36000666,0,0,0.36000666,204.21233,815.71)"
           style="fill:#fff0b1;stroke:none;stroke-width:82.44296265;fill-opacity:1">
          <path
             id="path5185"
             style="font-style:normal;font-variant:normal;font-weight:bold;font-stretch:normal;font-family:'Source Code Pro';-inkscape-font-specification:'Source Code Pro Bold';fill:#fff0b1;stroke:none;stroke-width:82.44296265;stroke-miterlimit:4;stroke-dasharray:none;fill-opacity:1"
             d="m 1964.88,-270.97782 69.48,-45 v 23.94 l -47.7,29.88 v 0.72 l 47.7,29.88 v 23.94 l -69.48,-45 z"
             inkscape:connector-curvature="0" />
          <path
             inkscape:connector-curvature="0"
             id="path5187"
             style="font-style:normal;font-variant:normal;font-weight:bold;font-stretch:normal;font-family:'Source Code Pro';-inkscape-font-specification:'Source Code Pro Bold';fill:#fff0b1;stroke:none;stroke-width:82.44296265;stroke-miterlimit:4;stroke-dasharray:none;fill-opacity:1"
             d="m 2087.3897,-182.83782 h -22.14 l 59.22,-156.6 h 22.14 z" />
          <path
             id="path5189"
             style="font-style:normal;font-variant:normal;font-weight:bold;font-stretch:normal;font-family:'Source Code Pro';-inkscape-font-specification:'Source Code Pro Bold';fill:#fff0b1;stroke:none;stroke-width:82.44296265;stroke-miterlimit:4;stroke-dasharray:none;fill-opacity:1"
             d="m 2246.9794,-252.61782 -69.48,45 v -23.94 l 47.7,-29.88 v -0.72 l -47.7,-29.88 v -23.94 l 69.48,45 z"
             inkscape:connector-curvature="0" />
        </g>
        <path
           inkscape:connector-curvature="0"
           style="fill:url(#radialGradient5219);fill-opacity:1;fill-rule:evenodd;stroke:none;stroke-width:82.44296265;stroke-miterlimit:4;stroke-dasharray:none"
           d="M 1053.7028,480.51116 H 872.34224 a 90.691916,90.691916 0 0 0 -0.0135,0.2882 90.691916,90.691916 0 0 0 90.69268,90.69267 90.691916,90.691916 0 0 0 90.69268,-90.69267 90.691916,90.691916 0 0 0 -0.012,-0.2882 z"
           id="path5193" />
        <path
           style="fill:#ffffff;fill-opacity:1;fill-rule:evenodd;stroke:none;stroke-width:82.44296265;stroke-miterlimit:4;stroke-dasharray:none"
           d="M 621.66211,470.36133 H 464.33984 a 78.671204,78.671204 0 0 0 -0.0117,0.25 A 78.671204,78.671204 0 0 0 543,549.2832 a 78.671204,78.671204 0 0 0 78.67188,-78.67187 78.671204,78.671204 0 0 0 -0.01,-0.25 z"
           id="path5195"
           transform="translate(420.02143,8.4852814)"
           inkscape:connector-curvature="0" />
        <circle
           style="fill:url(#radialGradient5221);fill-opacity:1;fill-rule:evenodd;stroke:none;stroke-width:82.44296265;stroke-miterlimit:4;stroke-dasharray:none"
           id="circle5197"
           cx="923.27222"
           cy="434.92633"
           r="22.792194" />
        <circle
           style="fill:#ffffff;fill-opacity:1;fill-rule:evenodd;stroke:none;stroke-width:82.44296265;stroke-miterlimit:4;stroke-dasharray:none"
           id="circle5199"
           cx="923.23883"
           cy="431.52243"
           r="21.213203" />
        <circle
           r="21.213203"
           cy="431.52243"
           cx="999.60638"
           id="circle5201"
           style="fill:#ffdd55;fill-opacity:1;fill-rule:evenodd;stroke:none;stroke-width:82.44296265;stroke-miterlimit:4;stroke-dasharray:none" />
        <circle
           cy="434.92633"
           cx="999.41492"
           id="circle5203"
           style="fill:url(#radialGradient5223);fill-opacity:1;fill-rule:evenodd;stroke:none;stroke-width:82.44296265;stroke-miterlimit:4;stroke-dasharray:none"
           r="22.792194" />
        <circle
           style="fill:#ffffff;fill-opacity:1;fill-rule:evenodd;stroke:none;stroke-width:82.44296265;stroke-miterlimit:4;stroke-dasharray:none"
           id="circle5205"
           cx="999.60638"
           cy="431.52243"
           r="21.213203" />
      </g>
    </g>
    <g
       aria-label="Competencia de Programación"
       transform="matrix(0.26458333,0,0,0.26458333,3.0574825,3.8754082)"
       style="font-style:normal;font-variant:normal;font-weight:bold;font-stretch:normal;font-size:29.33333397px;line-height:29.33333397px;font-family:'Museo Sans';-inkscape-font-specification:'Museo Sans Bold';letter-spacing:0px;word-spacing:0px;fill:#ffffff;fill-opacity:1;stroke:none"
       id="flowRoot5227">
      <path
         d="m 170.40384,285.49085 c 0,6.13067 4.4,10.85334 10.76533,10.85334 5.30934,0 8.184,-3.37334 8.184,-3.37334 l -1.99466,-2.728 c 0,0 -2.43467,2.64 -6.04267,2.64 -4.34133,0 -7.01067,-3.49066 -7.01067,-7.45066 0,-3.872 2.58134,-7.15734 6.98134,-7.15734 3.31466,0 5.69066,2.2 5.69066,2.2 l 1.81867,-2.816 c 0,0 -2.61067,-2.84533 -7.68533,-2.84533 -6.13067,0 -10.70667,4.63467 -10.70667,10.67733 z"
         style="font-style:normal;font-variant:normal;font-weight:600;font-stretch:normal;font-family:'Museo Sans';-inkscape-font-specification:'Museo Sans Semi-Bold';fill:#ffffff"
         id="path5239"
         inkscape:connector-curvature="0" />
      <path
         d="m 191.16588,288.51219 c 0,4.60533 3.66667,7.832 8.24267,7.832 4.54667,0 8.21333,-3.22667 8.21333,-7.832 0,-4.576 -3.66666,-7.832 -8.24266,-7.832 -4.54667,0 -8.21334,3.256 -8.21334,7.832 z m 3.784,0 c 0,-2.75734 2.024,-4.664 4.45867,-4.664 2.40533,0 4.42933,1.90666 4.42933,4.664 0,2.78666 -2.024,4.664 -4.42933,4.664 -2.43467,0 -4.45867,-1.87734 -4.45867,-4.664 z"
         style="font-style:normal;font-variant:normal;font-weight:600;font-stretch:normal;font-family:'Museo Sans';-inkscape-font-specification:'Museo Sans Semi-Bold';fill:#ffffff"
         id="path5241"
         inkscape:connector-curvature="0" />
      <path
         d="m 210.61388,295.99219 h 3.72533 v -6.57067 c 0,-0.67467 0.0293,-1.34933 0.176,-1.90667 0.46934,-1.90666 1.73067,-3.432 3.66667,-3.432 1.76,0 2.024,1.37867 2.024,2.992 v 8.91734 h 3.72533 v -6.57067 c 0,-0.704 0.0293,-1.34933 0.176,-1.936 0.44,-1.87733 1.70134,-3.40267 3.608,-3.40267 1.73067,0 2.05334,1.29067 2.05334,2.992 v 8.91734 h 3.72533 v -9.62134 c 0,-3.93066 -1.78933,-5.69066 -4.89867,-5.69066 -2.34666,0 -4.28266,1.46666 -5.104,3.08 h -0.0587 c -0.616,-2.024 -2.08267,-3.08 -4.37067,-3.08 -2.34667,0 -4.136,1.64266 -4.86933,3.10933 h -0.0587 c 0,0 0.0587,-0.46933 0.0587,-1.02667 v -1.73066 h -3.57867 z"
         style="font-style:normal;font-variant:normal;font-weight:600;font-stretch:normal;font-family:'Museo Sans';-inkscape-font-specification:'Museo Sans Semi-Bold';fill:#ffffff"
         id="path5243"
         inkscape:connector-curvature="0" />
      <path
         d="m 237.36909,301.85885 h 3.72533 v -6.27733 c 0,-0.76267 -0.0587,-1.29067 -0.0587,-1.29067 h 0.0587 c 0,0 1.32,2.05334 4.28267,2.05334 3.93067,0 6.83467,-3.08 6.83467,-7.832 0,-4.63467 -2.58134,-7.832 -6.62934,-7.832 -3.52,0 -4.81066,2.464 -4.81066,2.464 h -0.0587 c 0,0 0.0587,-0.46934 0.0587,-1.02667 v -1.08533 h -3.40267 z m 3.608,-13.25866 c 0,-3.31467 1.81867,-4.72267 3.75467,-4.72267 2.2,0 3.72533,1.848 3.72533,4.69333 0,2.96267 -1.70133,4.63467 -3.75467,4.63467 -2.464,0 -3.72533,-2.288 -3.72533,-4.60533 z"
         style="font-style:normal;font-variant:normal;font-weight:600;font-stretch:normal;font-family:'Museo Sans';-inkscape-font-specification:'Museo Sans Semi-Bold';fill:#ffffff"
         id="path5245"
         inkscape:connector-curvature="0" />
      <path
         d="m 254.24538,288.51219 c 0,4.25333 3.08,7.832 8.03733,7.832 3.72534,0 6.01334,-2.14134 6.01334,-2.14134 l -1.43734,-2.66933 c 0,0 -1.90666,1.64267 -4.312,1.64267 -2.22933,0 -4.25333,-1.34934 -4.488,-3.96 h 10.32534 c 0,0 0.088,-0.99734 0.088,-1.43734 0,-3.96 -2.31734,-7.09866 -6.62934,-7.09866 -4.45866,0 -7.59733,3.22666 -7.59733,7.832 z m 3.93067,-1.848 c 0.352,-1.936 1.672,-3.10934 3.57866,-3.10934 1.64267,0 2.904,1.08534 2.96267,3.10934 z"
         style="font-style:normal;font-variant:normal;font-weight:600;font-stretch:normal;font-family:'Museo Sans';-inkscape-font-specification:'Museo Sans Semi-Bold';fill:#ffffff"
         id="path5247"
         inkscape:connector-curvature="0" />
      <path
         d="m 272.21755,290.50685 c 0,5.016 4.136,5.632 6.21867,5.632 0.704,0 1.144,-0.088 1.144,-0.088 v -3.256 c 0,0 -0.264,0.0587 -0.67467,0.0587 -1.02667,0 -2.96267,-0.352 -2.96267,-2.816 v -5.808 h 3.40267 v -2.96267 h -3.40267 v -4.312 h -3.63733 v 4.312 h -2.024 v 2.96267 h 1.936 z"
         style="font-style:normal;font-variant:normal;font-weight:600;font-stretch:normal;font-family:'Museo Sans';-inkscape-font-specification:'Museo Sans Semi-Bold';fill:#ffffff"
         id="path5249"
         inkscape:connector-curvature="0" />
      <path
         d="m 281.57351,288.51219 c 0,4.25333 3.08,7.832 8.03734,7.832 3.72533,0 6.01333,-2.14134 6.01333,-2.14134 l -1.43733,-2.66933 c 0,0 -1.90667,1.64267 -4.312,1.64267 -2.22934,0 -4.25334,-1.34934 -4.488,-3.96 h 10.32533 c 0,0 0.088,-0.99734 0.088,-1.43734 0,-3.96 -2.31733,-7.09866 -6.62933,-7.09866 -4.45867,0 -7.59734,3.22666 -7.59734,7.832 z m 3.93067,-1.848 c 0.352,-1.936 1.672,-3.10934 3.57867,-3.10934 1.64266,0 2.904,1.08534 2.96266,3.10934 z"
         style="font-style:normal;font-variant:normal;font-weight:600;font-stretch:normal;font-family:'Museo Sans';-inkscape-font-specification:'Museo Sans Semi-Bold';fill:#ffffff"
         id="path5251"
         inkscape:connector-curvature="0" />
      <path
         d="m 298.90034,295.99219 h 3.72533 v -6.864 c 0,-0.704 0.0587,-1.37867 0.264,-1.99467 0.55734,-1.78933 2.024,-3.05067 4.01867,-3.05067 1.90667,0 2.376,1.232 2.376,3.05067 v 8.85867 h 3.696 v -9.62134 c 0,-3.96 -1.87733,-5.69066 -5.192,-5.69066 -3.02133,0 -4.664,1.848 -5.30933,3.10933 h -0.0587 c 0,0 0.0587,-0.46933 0.0587,-1.02667 v -1.73066 h -3.57867 z"
         style="font-style:normal;font-variant:normal;font-weight:600;font-stretch:normal;font-family:'Museo Sans';-inkscape-font-specification:'Museo Sans Semi-Bold';fill:#ffffff"
         id="path5253"
         inkscape:connector-curvature="0" />
      <path
         d="m 315.80459,288.51219 c 0,4.34133 3.168,7.832 8.12534,7.832 4.01866,0 6.16,-2.43467 6.16,-2.43467 l -1.43734,-2.64 c 0,0 -1.87733,1.90667 -4.4,1.90667 -2.84533,0 -4.664,-2.17067 -4.664,-4.69334 0,-2.552 1.78934,-4.63466 4.54667,-4.63466 2.34667,0 3.90133,1.61333 3.90133,1.61333 l 1.64267,-2.552 c 0,0 -1.848,-2.22933 -5.74933,-2.22933 -4.95734,0 -8.12534,3.57866 -8.12534,7.832 z"
         style="font-style:normal;font-variant:normal;font-weight:600;font-stretch:normal;font-family:'Museo Sans';-inkscape-font-specification:'Museo Sans Semi-Bold';fill:#ffffff"
         id="path5255"
         inkscape:connector-curvature="0" />
      <path
         d="m 332.8743,278.48019 h 3.696 v -3.31467 h -3.696 z m 0,17.512 h 3.72534 v -14.96 h -3.72534 z"
         style="font-style:normal;font-variant:normal;font-weight:600;font-stretch:normal;font-family:'Museo Sans';-inkscape-font-specification:'Museo Sans Semi-Bold';fill:#ffffff"
         id="path5257"
         inkscape:connector-curvature="0" />
      <path
         d="m 339.46192,291.68019 c 0,2.992 2.40534,4.664 5.07467,4.664 3.40267,0 4.576,-2.64 4.54667,-2.64 h 0.0587 c 0,0 -0.0587,0.46933 -0.0587,1.056 v 1.232 h 3.432 v -9.35734 c 0,-3.784 -2.288,-5.95466 -6.21867,-5.95466 -3.54933,0 -5.86667,1.848 -5.86667,1.848 l 1.408,2.66933 c 0,0 1.96534,-1.43733 4.10667,-1.43733 1.64267,0 2.87467,0.67466 2.87467,2.64 v 0.20533 h -0.49867 c -2.43467,0 -8.85867,0.32267 -8.85867,5.07467 z m 3.75467,-0.176 c 0,-2.08267 3.08,-2.34667 4.98667,-2.34667 h 0.64533 v 0.352 c 0,1.81867 -1.408,3.93067 -3.37333,3.93067 -1.52534,0 -2.25867,-0.93867 -2.25867,-1.936 z"
         style="font-style:normal;font-variant:normal;font-weight:600;font-stretch:normal;font-family:'Museo Sans';-inkscape-font-specification:'Museo Sans Semi-Bold';fill:#ffffff"
         id="path5259"
         inkscape:connector-curvature="0" />
      <path
         d="m 170.22784,317.84553 c 0,4.63467 2.58133,7.832 6.62933,7.832 3.432,0 4.69334,-2.552 4.69334,-2.552 h 0.0587 c 0,0 -0.0587,0.41067 -0.0587,0.968 v 1.232 h 3.52 v -20.82667 h -3.72534 v 6.57067 c 0,0.46933 0.0293,0.85067 0.0293,0.85067 h -0.0587 c 0,0 -1.02667,-1.90667 -4.312,-1.90667 -3.96,0 -6.776,3.08 -6.776,7.832 z m 3.75467,0 c 0,-2.96267 1.70133,-4.63467 3.75466,-4.63467 2.49334,0 3.72534,2.288 3.72534,4.60534 0,3.31466 -1.81867,4.72266 -3.75467,4.72266 -2.2,0 -3.72533,-1.848 -3.72533,-4.69333 z"
         style="font-style:normal;font-variant:normal;font-weight:600;font-stretch:normal;font-family:'Museo Sans';-inkscape-font-specification:'Museo Sans Semi-Bold';fill:#ffffff"
         id="path5261"
         inkscape:connector-curvature="0" />
      <path
         d="m 188.1308,317.84553 c 0,4.25333 3.08,7.832 8.03733,7.832 3.72534,0 6.01334,-2.14133 6.01334,-2.14133 l -1.43734,-2.66934 c 0,0 -1.90666,1.64267 -4.312,1.64267 -2.22933,0 -4.25333,-1.34933 -4.488,-3.96 h 10.32534 c 0,0 0.088,-0.99733 0.088,-1.43733 0,-3.96 -2.31734,-7.09867 -6.62934,-7.09867 -4.45867,0 -7.59733,3.22667 -7.59733,7.832 z m 3.93066,-1.848 c 0.352,-1.936 1.672,-3.10933 3.57867,-3.10933 1.64267,0 2.904,1.08533 2.96267,3.10933 z"
         style="font-style:normal;font-variant:normal;font-weight:600;font-stretch:normal;font-family:'Museo Sans';-inkscape-font-specification:'Museo Sans Semi-Bold';fill:#ffffff"
         id="path5263"
         inkscape:connector-curvature="0" />
      <g
         id="g903"
         style="fill:#ffffff">
        <path
           inkscape:connector-curvature="0"
           id="path5265"
           style="font-style:normal;font-variant:normal;font-weight:600;font-stretch:normal;font-family:'Museo Sans';-inkscape-font-specification:'Museo Sans Semi-Bold';fill:#ffffff"
           d="m 213.14846,325.32553 h 3.784 v -7.18667 h 4.25334 c 3.90133,0 6.62933,-2.816 6.62933,-6.864 0,-4.048 -2.728,-6.776 -6.62933,-6.776 h -8.03734 z m 3.784,-10.472 v -7.09867 h 3.60801 c 2.14133,0 3.432,1.37867 3.432,3.52 0,2.17067 -1.29067,3.57867 -3.49067,3.57867 z" />
        <path
           inkscape:connector-curvature="0"
           id="path5267"
           style="font-style:normal;font-variant:normal;font-weight:600;font-stretch:normal;font-family:'Museo Sans';-inkscape-font-specification:'Museo Sans Semi-Bold';fill:#ffffff"
           d="m 230.55138,325.32553 h 3.72534 v -5.92533 c 0,-0.88 0.088,-1.70134 0.32266,-2.43467 0.704,-2.22933 2.49334,-3.13867 4.07734,-3.13867 0.49866,0 0.88,0.0587 0.88,0.0587 v -3.66667 c 0,0 -0.32267,-0.0587 -0.67467,-0.0587 -2.288,0 -4.07733,1.70133 -4.752,3.84266 h -0.0587 c 0,0 0.0587,-0.49866 0.0587,-1.056 v -2.58133 h -3.57867 z" />
        <path
           inkscape:connector-curvature="0"
           id="path5269"
           style="font-style:normal;font-variant:normal;font-weight:600;font-stretch:normal;font-family:'Museo Sans';-inkscape-font-specification:'Museo Sans Semi-Bold';fill:#ffffff"
           d="m 240.95234,317.84553 c 0,4.60533 3.66667,7.832 8.24267,7.832 4.54666,0 8.21333,-3.22667 8.21333,-7.832 0,-4.576 -3.66667,-7.832 -8.24267,-7.832 -4.54666,0 -8.21333,3.256 -8.21333,7.832 z m 3.784,0 c 0,-2.75733 2.024,-4.664 4.45867,-4.664 2.40533,0 4.42933,1.90667 4.42933,4.664 0,2.78667 -2.024,4.664 -4.42933,4.664 -2.43467,0 -4.45867,-1.87733 -4.45867,-4.664 z" />
        <path
           inkscape:connector-curvature="0"
           id="path5271"
           style="font-style:normal;font-variant:normal;font-weight:600;font-stretch:normal;font-family:'Museo Sans';-inkscape-font-specification:'Museo Sans Semi-Bold';fill:#ffffff"
           d="m 261.92567,327.34953 -1.11466,2.84533 c 1.43733,0.76267 3.432,1.29067 5.30933,1.29067 3.90133,0 7.89067,-1.936 7.89067,-7.06933 v -14.05067 h -3.49067 v 1.144 c 0,0.23467 0.0293,0.41067 0.0293,0.41067 h -0.088 c 0,0 -1.17333,-1.90667 -4.42933,-1.90667 -4.312,0 -6.62933,3.344 -6.62933,7.45067 0,4.10666 2.43466,7.568 6.71733,7.568 1.99467,0 3.28533,-0.704 4.16533,-2.024 h 0.0587 c 0,0 -0.0587,0.44 -0.0587,0.792 v 0.88 c 0,2.66933 -1.936,3.63733 -4.224,3.63733 -2.25866,0 -4.136,-0.968 -4.136,-0.968 z m 4.98667,-5.456 c -2.40533,0 -3.75467,-1.936 -3.75467,-4.54667 0,-2.52266 1.26134,-4.16533 3.52,-4.16533 2.024,0 3.696,0.90933 3.696,4.312 0,3.37333 -1.672,4.4 -3.46133,4.4 z" />
        <path
           inkscape:connector-curvature="0"
           id="path5273"
           style="font-style:normal;font-variant:normal;font-weight:600;font-stretch:normal;font-family:'Museo Sans';-inkscape-font-specification:'Museo Sans Semi-Bold';fill:#ffffff"
           d="m 278.10347,325.32553 h 3.72533 v -5.92533 c 0,-0.88 0.088,-1.70134 0.32267,-2.43467 0.704,-2.22933 2.49333,-3.13867 4.07733,-3.13867 0.49867,0 0.88,0.0587 0.88,0.0587 v -3.66667 c 0,0 -0.32267,-0.0587 -0.67467,-0.0587 -2.288,0 -4.07733,1.70133 -4.752,3.84266 h -0.0587 c 0,0 0.0587,-0.49866 0.0587,-1.056 v -2.58133 h -3.57866 z" />
        <path
           inkscape:connector-curvature="0"
           id="path5275"
           style="font-style:normal;font-variant:normal;font-weight:600;font-stretch:normal;font-family:'Museo Sans';-inkscape-font-specification:'Museo Sans Semi-Bold';fill:#ffffff"
           d="m 288.35776,321.01353 c 0,2.992 2.40533,4.664 5.07466,4.664 3.40267,0 4.576,-2.64 4.54667,-2.64 h 0.0587 c 0,0 -0.0587,0.46933 -0.0587,1.056 v 1.232 h 3.432 v -9.35733 c 0,-3.784 -2.288,-5.95467 -6.21867,-5.95467 -3.54933,0 -5.86666,1.848 -5.86666,1.848 l 1.408,2.66933 c 0,0 1.96533,-1.43733 4.10666,-1.43733 1.64267,0 2.87467,0.67467 2.87467,2.64 v 0.20533 h -0.49867 c -2.43466,0 -8.85866,0.32267 -8.85866,5.07467 z m 3.75466,-0.176 c 0,-2.08267 3.08,-2.34667 4.98667,-2.34667 h 0.64533 v 0.352 c 0,1.81867 -1.408,3.93067 -3.37333,3.93067 -1.52533,0 -2.25867,-0.93867 -2.25867,-1.936 z" />
        <path
           inkscape:connector-curvature="0"
           id="path5277"
           style="font-style:normal;font-variant:normal;font-weight:600;font-stretch:normal;font-family:'Museo Sans';-inkscape-font-specification:'Museo Sans Semi-Bold';fill:#ffffff"
           d="m 305.25972,325.32553 h 3.72534 v -6.57067 c 0,-0.67466 0.0293,-1.34933 0.176,-1.90666 0.46933,-1.90667 1.73066,-3.432 3.66666,-3.432 1.76,0 2.024,1.37866 2.024,2.992 v 8.91733 h 3.72534 v -6.57067 c 0,-0.704 0.0293,-1.34933 0.176,-1.936 0.44,-1.87733 1.70133,-3.40266 3.608,-3.40266 1.73066,0 2.05333,1.29066 2.05333,2.992 v 8.91733 h 3.72533 v -9.62133 c 0,-3.93067 -1.78933,-5.69067 -4.89866,-5.69067 -2.34667,0 -4.28267,1.46667 -5.104,3.08 h -0.0587 c -0.616,-2.024 -2.08267,-3.08 -4.37067,-3.08 -2.34666,0 -4.136,1.64267 -4.86933,3.10933 h -0.0587 c 0,0 0.0587,-0.46933 0.0587,-1.02666 v -1.73067 h -3.57867 z" />
        <path
           inkscape:connector-curvature="0"
           id="path5279"
           style="font-style:normal;font-variant:normal;font-weight:600;font-stretch:normal;font-family:'Museo Sans';-inkscape-font-specification:'Museo Sans Semi-Bold';fill:#ffffff"
           d="m 330.75359,321.01353 c 0,2.992 2.40534,4.664 5.07467,4.664 3.40267,0 4.576,-2.64 4.54667,-2.64 h 0.0587 c 0,0 -0.0587,0.46933 -0.0587,1.056 v 1.232 h 3.432 v -9.35733 c 0,-3.784 -2.288,-5.95467 -6.21867,-5.95467 -3.54933,0 -5.86667,1.848 -5.86667,1.848 l 1.408,2.66933 c 0,0 1.96534,-1.43733 4.10667,-1.43733 1.64267,0 2.87467,0.67467 2.87467,2.64 v 0.20533 h -0.49867 c -2.43467,0 -8.85867,0.32267 -8.85867,5.07467 z m 3.75467,-0.176 c 0,-2.08267 3.08,-2.34667 4.98667,-2.34667 h 0.64533 v 0.352 c 0,1.81867 -1.408,3.93067 -3.37333,3.93067 -1.52534,0 -2.25867,-0.93867 -2.25867,-1.936 z" />
        <path
           inkscape:connector-curvature="0"
           id="path5281"
           style="font-style:normal;font-variant:normal;font-weight:600;font-stretch:normal;font-family:'Museo Sans';-inkscape-font-specification:'Museo Sans Semi-Bold';fill:#ffffff"
           d="m 346.57022,317.84553 c 0,4.34133 3.168,7.832 8.12533,7.832 4.01867,0 6.16,-2.43467 6.16,-2.43467 l -1.43733,-2.64 c 0,0 -1.87733,1.90667 -4.4,1.90667 -2.84533,0 -4.664,-2.17067 -4.664,-4.69333 0,-2.552 1.78933,-4.63467 4.54667,-4.63467 2.34666,0 3.90133,1.61333 3.90133,1.61333 l 1.64267,-2.552 c 0,0 -1.848,-2.22933 -5.74934,-2.22933 -4.95733,0 -8.12533,3.57867 -8.12533,7.832 z" />
        <path
           inkscape:connector-curvature="0"
           id="path5283"
           style="font-style:normal;font-variant:normal;font-weight:600;font-stretch:normal;font-family:'Museo Sans';-inkscape-font-specification:'Museo Sans Semi-Bold';fill:#ffffff"
           d="m 363.63993,307.81353 h 3.696 v -3.31467 h -3.696 z m 0,17.512 h 3.72533 v -14.96 h -3.72533 z" />
        <path
           inkscape:connector-curvature="0"
           id="path5285"
           style="font-style:normal;font-variant:normal;font-weight:600;font-stretch:normal;font-family:'Museo Sans';-inkscape-font-specification:'Museo Sans Semi-Bold';fill:#ffffff"
           d="m 370.37421,317.84553 c 0,4.60533 3.66667,7.832 8.24267,7.832 4.54667,0 8.21333,-3.22667 8.21333,-7.832 0,-4.576 -3.66666,-7.832 -8.24266,-7.832 -4.54667,0 -8.21334,3.256 -8.21334,7.832 z m 3.784,0 c 0,-2.75733 2.024,-4.664 4.45867,-4.664 2.40533,0 4.42933,1.90667 4.42933,4.664 0,2.78667 -2.024,4.664 -4.42933,4.664 -2.43467,0 -4.45867,-1.87733 -4.45867,-4.664 z m 2.84534,-9.328 h 2.992 l 3.08,-3.98933 h -3.84267 z" />
        <path
           inkscape:connector-curvature="0"
           id="path5287"
           style="font-style:normal;font-variant:normal;font-weight:600;font-stretch:normal;font-family:'Museo Sans';-inkscape-font-specification:'Museo Sans Semi-Bold';fill:#ffffff"
           d="m 389.82222,325.32553 h 3.72534 v -6.864 c 0,-0.704 0.0587,-1.37867 0.264,-1.99467 0.55733,-1.78933 2.024,-3.05066 4.01866,-3.05066 1.90667,0 2.376,1.232 2.376,3.05066 v 8.85867 h 3.696 v -9.62133 c 0,-3.96 -1.87733,-5.69067 -5.192,-5.69067 -3.02133,0 -4.664,1.848 -5.30933,3.10933 h -0.0587 c 0,0 0.0587,-0.46933 0.0587,-1.02666 v -1.73067 h -3.57867 z" />
      </g>
    </g>
  </g>
</svg>
